<svg width="18" height="18" viewBox="0 0 18 18" fill="none" xmlns="http://www.w3.org/2000/svg">
<path d="M2.25 4.33203V7.83413H5.7521" stroke="#4C9AFF" style="stroke:#4C9AFF;stroke:color(display-p3 0.2980 0.6039 1.0000);stroke-opacity:1;" stroke-width="1.125" stroke-linecap="round" stroke-linejoin="round"/>
<path d="M15.091 13.671V10.1689H11.5889" stroke="#4C9AFF" style="stroke:#4C9AFF;stroke:color(display-p3 0.2980 0.6039 1.0000);stroke-opacity:1;" stroke-width="1.125" stroke-linecap="round" stroke-linejoin="round"/>
<path d="M13.626 7.25072C13.33 6.41418 12.8269 5.66626 12.1636 5.07674C11.5003 4.48723 10.6986 4.07535 9.83305 3.87951C8.96756 3.68368 8.06655 3.7103 7.21412 3.95686C6.36169 4.20343 5.58561 4.66192 4.95829 5.28954L2.25 7.83441M15.091 10.1691L12.3828 12.714C11.7554 13.3416 10.9794 13.8001 10.1269 14.0467C9.27449 14.2933 8.37349 14.3199 7.50799 14.124C6.64249 13.9282 5.84071 13.5163 5.17745 12.9268C4.51419 12.3373 4.01107 11.5894 3.71505 10.7528" stroke="#4C9AFF" style="stroke:#4C9AFF;stroke:color(display-p3 0.2980 0.6039 1.0000);stroke-opacity:1;" stroke-width="1.125" stroke-linecap="round" stroke-linejoin="round"/>
</svg>
