<svg width="24" height="24" viewBox="0 0 24 24" fill="none" xmlns="http://www.w3.org/2000/svg">
<path d="M4 6.59961H5.77778H20" stroke="#1D2129" style="stroke:#1D2129;stroke:color(display-p3 0.1137 0.1294 0.1608);stroke-opacity:1;" stroke-width="1.5" stroke-linecap="round" stroke-linejoin="round"/>
<path d="M18.2218 6.6V19.2C18.2218 19.6774 18.0345 20.1352 17.7011 20.4728C17.3677 20.8104 16.9155 21 16.444 21H7.55512C7.08363 21 6.63144 20.8104 6.29804 20.4728C5.96464 20.1352 5.77734 19.6774 5.77734 19.2V6.6M8.44401 6.6V4.8C8.44401 4.32261 8.63131 3.86477 8.96471 3.52721C9.29811 3.18964 9.75029 3 10.2218 3H13.7773C14.2488 3 14.701 3.18964 15.0344 3.52721C15.3678 3.86477 15.5551 4.32261 15.5551 4.8V6.6" stroke="#1D2129" style="stroke:#1D2129;stroke:color(display-p3 0.1137 0.1294 0.1608);stroke-opacity:1;" stroke-width="1.5" stroke-linecap="round" stroke-linejoin="round"/>
<path d="M10.2227 11.0996V16.4996" stroke="#1D2129" style="stroke:#1D2129;stroke:color(display-p3 0.1137 0.1294 0.1608);stroke-opacity:1;" stroke-width="1.5" stroke-linecap="round" stroke-linejoin="round"/>
<path d="M13.7773 11.0996V16.4996" stroke="#1D2129" style="stroke:#1D2129;stroke:color(display-p3 0.1137 0.1294 0.1608);stroke-opacity:1;" stroke-width="1.5" stroke-linecap="round" stroke-linejoin="round"/>
</svg>
