<svg width="16" height="16" viewBox="0 0 16 16" fill="none" xmlns="http://www.w3.org/2000/svg">
<path d="M7.83333 11.6667C8.56667 11.6667 9.16667 11.0667 9.16667 10.3333C9.16667 9.6 8.56667 9 7.83333 9C7.1 9 6.5 9.6 6.5 10.3333C6.5 11.0667 7.1 11.6667 7.83333 11.6667ZM11.8333 5.66667H11.1667V4.33333C11.1667 2.49333 9.67333 1 7.83333 1C5.99333 1 4.5 2.49333 4.5 4.33333V5.66667H3.83333C3.1 5.66667 2.5 6.26667 2.5 7V13.6667C2.5 14.4 3.1 15 3.83333 15H11.8333C12.5667 15 13.1667 14.4 13.1667 13.6667V7C13.1667 6.26667 12.5667 5.66667 11.8333 5.66667ZM5.76667 4.33333C5.76667 3.19333 6.69333 2.26667 7.83333 2.26667C8.97333 2.26667 9.9 3.19333 9.9 4.33333V5.66667H5.76667V4.33333ZM11.8333 13.6667H3.83333V7H11.8333V13.6667Z" fill="white" style="fill:white;fill-opacity:1;"/>
</svg>
