<svg width="18" height="17" viewBox="0 0 18 17" fill="none" xmlns="http://www.w3.org/2000/svg">
<path d="M8.22811 14.5674L8.22708 14.5664C5.99091 12.5387 4.19268 10.9064 2.94491 9.38084C1.70533 7.86533 1.08359 6.54233 1.08359 5.14558C1.08359 2.8815 2.8527 1.1124 5.11677 1.1124C6.4024 1.1124 7.64744 1.71437 8.45714 2.6652L8.9996 3.30222L9.54206 2.6652C10.3518 1.71437 11.5968 1.1124 12.8824 1.1124C15.1465 1.1124 16.9156 2.8815 16.9156 5.14558C16.9156 6.54234 16.2939 7.86537 15.0541 9.3821C13.8064 10.9087 12.0083 12.543 9.77233 14.5749C9.77207 14.5751 9.77181 14.5753 9.77156 14.5756L9.00142 15.2714L8.22811 14.5674Z" stroke="#4C9AFF" style="stroke:#4C9AFF;stroke:color(display-p3 0.2980 0.6039 1.0000);stroke-opacity:1;" stroke-width="1.425"/>
</svg>
