<svg width="27" height="24" viewBox="0 0 27 24" fill="none" xmlns="http://www.w3.org/2000/svg">
<path d="M19.8137 8.95838L14.506 1.00896C14.2758 0.669652 13.888 0.5 13.5002 0.5C13.1124 0.5 12.7247 0.669653 12.4944 1.02108L7.18673 8.95838H1.38221C0.71572 8.95838 0.17041 9.5037 0.17041 10.1702C0.17041 10.2793 0.182528 10.3883 0.218882 10.4974L3.29685 21.7308C3.57557 22.7487 4.50865 23.5 5.62351 23.5H21.3769C22.4918 23.5 23.4248 22.7487 23.7157 21.7308L26.7936 10.4974L26.83 10.1702C26.83 9.5037 26.2847 8.95838 25.6182 8.95838H19.8137ZM9.8648 8.95838L13.5002 3.62645L17.1356 8.95838H9.8648ZM13.5002 18.6528C12.1672 18.6528 11.0766 17.5622 11.0766 16.2292C11.0766 14.8962 12.1672 13.8056 13.5002 13.8056C14.8332 13.8056 15.9238 14.8962 15.9238 16.2292C15.9238 17.5622 14.8332 18.6528 13.5002 18.6528Z" fill="#636363" style="fill:#636363;fill:color(display-p3 0.3875 0.3875 0.3875);fill-opacity:1;"/>
</svg>
