<svg width="16" height="12" viewBox="0 0 16 12" fill="none" xmlns="http://www.w3.org/2000/svg">
<path fill-rule="evenodd" clip-rule="evenodd" d="M8.32997 2.60838C10.5459 2.60848 12.677 3.45992 14.283 4.98672C14.4039 5.10459 14.5972 5.1031 14.7163 4.98338L15.8723 3.81672C15.9326 3.75599 15.9662 3.67374 15.9657 3.58816C15.9652 3.50258 15.9306 3.42073 15.8696 3.36072C11.6545 -0.678832 5.00473 -0.678832 0.789632 3.36072C0.728573 3.42068 0.693929 3.50251 0.693366 3.58809C0.692803 3.67367 0.726368 3.75595 0.786632 3.81672L1.94297 4.98338C2.06199 5.10328 2.25544 5.10477 2.3763 4.98672C3.98245 3.45982 6.11385 2.60838 8.32997 2.60838ZM8.32997 6.40405C9.54745 6.40397 10.7215 6.85651 11.624 7.67371C11.746 7.7897 11.9383 7.78718 12.0573 7.66805L13.212 6.50138C13.2728 6.44019 13.3065 6.35717 13.3056 6.27091C13.3048 6.18464 13.2693 6.10233 13.2073 6.04238C10.4591 3.486 6.20316 3.486 3.45497 6.04238C3.39289 6.10233 3.35747 6.18468 3.35665 6.27097C3.35584 6.35727 3.3897 6.44028 3.45063 6.50138L4.60497 7.66805C4.72395 7.78718 4.91624 7.7897 5.0383 7.67371C5.94017 6.85705 7.11328 6.40455 8.32997 6.40405ZM10.643 8.95787C10.6447 9.04437 10.6107 9.12778 10.549 9.18838L8.55163 11.204C8.49308 11.2633 8.41326 11.2966 8.32997 11.2966C8.24667 11.2966 8.16685 11.2633 8.1083 11.204L6.11063 9.18838C6.04892 9.12773 6.01497 9.0443 6.0168 8.9578C6.01863 8.87129 6.05608 8.78937 6.1203 8.73138C7.39587 7.6525 9.26406 7.6525 10.5396 8.73138C10.6038 8.78942 10.6412 8.87136 10.643 8.95787Z" fill="black" style="fill:black;fill-opacity:1;"/>
</svg>
